<mxfile host="Electron" agent="Mozilla/5.0 (Windows NT 10.0; Win64; x64) AppleWebKit/537.36 (KHTML, like Gecko) draw.io/24.7.8 Chrome/128.0.6613.36 Electron/32.0.1 Safari/537.36" version="24.7.8">
  <diagram name="Strona-1" id="L9ctT1P_wnlASsCxH3Sr">
    <mxGraphModel dx="1582" dy="2556" grid="1" gridSize="10" guides="1" tooltips="1" connect="1" arrows="1" fold="1" page="1" pageScale="1" pageWidth="827" pageHeight="1169" math="0" shadow="0">
      <root>
        <mxCell id="0" />
        <mxCell id="1" parent="0" />
        <mxCell id="RVduhejHb8S-k_TmpePf-2" value="" style="swimlane;startSize=0;" vertex="1" parent="1">
          <mxGeometry x="180" y="-10" width="1130" height="980" as="geometry">
            <mxRectangle x="180" y="54" width="50" height="40" as="alternateBounds" />
          </mxGeometry>
        </mxCell>
        <mxCell id="RVduhejHb8S-k_TmpePf-5" value="&amp;lt;&amp;lt;include&amp;gt;&amp;gt;" style="endArrow=open;endSize=12;dashed=1;html=1;rounded=0;entryX=0.5;entryY=0;entryDx=0;entryDy=0;exitX=0.5;exitY=1;exitDx=0;exitDy=0;" edge="1" parent="RVduhejHb8S-k_TmpePf-2" source="RVduhejHb8S-k_TmpePf-6">
          <mxGeometry width="160" relative="1" as="geometry">
            <mxPoint x="110" y="126" as="sourcePoint" />
            <mxPoint x="111" y="270" as="targetPoint" />
          </mxGeometry>
        </mxCell>
        <mxCell id="RVduhejHb8S-k_TmpePf-46" value="&amp;lt;&amp;lt;extend&amp;gt;&amp;gt;" style="endArrow=open;endSize=12;dashed=1;html=1;rounded=0;entryX=0.5;entryY=1;entryDx=0;entryDy=0;exitX=0.5;exitY=0;exitDx=0;exitDy=0;" edge="1" parent="RVduhejHb8S-k_TmpePf-2" source="RVduhejHb8S-k_TmpePf-45">
          <mxGeometry width="160" relative="1" as="geometry">
            <mxPoint x="110" y="516.0000000000002" as="sourcePoint" />
            <mxPoint x="111" y="526" as="targetPoint" />
          </mxGeometry>
        </mxCell>
        <mxCell id="RVduhejHb8S-k_TmpePf-49" value="&amp;lt;&amp;lt;include&amp;gt;&amp;gt;" style="endArrow=open;endSize=12;dashed=1;html=1;rounded=0;entryX=0;entryY=1;entryDx=0;entryDy=0;exitX=1;exitY=0;exitDx=0;exitDy=0;" edge="1" parent="RVduhejHb8S-k_TmpePf-2" source="RVduhejHb8S-k_TmpePf-3">
          <mxGeometry width="160" relative="1" as="geometry">
            <mxPoint x="120" y="130" as="sourcePoint" />
            <mxPoint x="228.5735931288168" y="244.28427124745576" as="targetPoint" />
          </mxGeometry>
        </mxCell>
        <mxCell id="RVduhejHb8S-k_TmpePf-50" value="&amp;lt;&amp;lt;extend&amp;gt;&amp;gt;" style="endArrow=open;endSize=12;dashed=1;html=1;rounded=0;entryX=0.5;entryY=0;entryDx=0;entryDy=0;exitX=0.5;exitY=1;exitDx=0;exitDy=0;" edge="1" parent="RVduhejHb8S-k_TmpePf-2" target="RVduhejHb8S-k_TmpePf-4">
          <mxGeometry width="160" relative="1" as="geometry">
            <mxPoint x="111" y="350" as="sourcePoint" />
            <mxPoint x="120" y="476" as="targetPoint" />
          </mxGeometry>
        </mxCell>
        <mxCell id="RVduhejHb8S-k_TmpePf-90" value="" style="endArrow=none;html=1;rounded=0;entryX=0;entryY=0.5;entryDx=0;entryDy=0;exitX=1;exitY=0.3333333333333333;exitDx=0;exitDy=0;exitPerimeter=0;" edge="1" parent="1" target="RVduhejHb8S-k_TmpePf-3">
          <mxGeometry width="50" height="50" relative="1" as="geometry">
            <mxPoint x="108" y="299.3333333333335" as="sourcePoint" />
            <mxPoint x="350" y="310" as="targetPoint" />
          </mxGeometry>
        </mxCell>
        <mxCell id="RVduhejHb8S-k_TmpePf-91" value="" style="endArrow=none;html=1;rounded=0;entryX=0;entryY=0.5;entryDx=0;entryDy=0;exitX=1;exitY=0.3333333333333333;exitDx=0;exitDy=0;exitPerimeter=0;" edge="1" parent="1" target="RVduhejHb8S-k_TmpePf-6">
          <mxGeometry width="50" height="50" relative="1" as="geometry">
            <mxPoint x="108" y="299.3333333333335" as="sourcePoint" />
            <mxPoint x="350" y="310" as="targetPoint" />
          </mxGeometry>
        </mxCell>
        <mxCell id="RVduhejHb8S-k_TmpePf-92" value="" style="endArrow=none;html=1;rounded=0;exitX=1;exitY=0.3333333333333333;exitDx=0;exitDy=0;exitPerimeter=0;entryX=0;entryY=0.5;entryDx=0;entryDy=0;" edge="1" parent="1" target="RVduhejHb8S-k_TmpePf-4">
          <mxGeometry width="50" height="50" relative="1" as="geometry">
            <mxPoint x="108" y="299.3333333333335" as="sourcePoint" />
            <mxPoint x="350" y="310" as="targetPoint" />
          </mxGeometry>
        </mxCell>
        <mxCell id="RVduhejHb8S-k_TmpePf-97" value="" style="endArrow=none;html=1;rounded=0;exitX=1;exitY=0.3333333333333333;exitDx=0;exitDy=0;exitPerimeter=0;entryX=0;entryY=0.5;entryDx=0;entryDy=0;" edge="1" parent="1" target="RVduhejHb8S-k_TmpePf-45">
          <mxGeometry width="50" height="50" relative="1" as="geometry">
            <mxPoint x="108" y="299.3333333333335" as="sourcePoint" />
            <mxPoint x="110" y="610" as="targetPoint" />
          </mxGeometry>
        </mxCell>
        <mxCell id="RVduhejHb8S-k_TmpePf-107" value="&lt;font style=&quot;font-size: 16px;&quot;&gt;uc Przedstawiciele władz i organizacje pomocowe&lt;/font&gt;" style="shape=umlFrame;whiteSpace=wrap;html=1;pointerEvents=0;recursiveResize=0;container=1;collapsible=0;width=420;height=45;" vertex="1" parent="1">
          <mxGeometry x="40" y="-95" width="1360" height="1135" as="geometry" />
        </mxCell>
        <mxCell id="RVduhejHb8S-k_TmpePf-80" value="Aktualizuj stastus zadania" style="ellipse;whiteSpace=wrap;html=1;" vertex="1" parent="RVduhejHb8S-k_TmpePf-107">
          <mxGeometry x="951" y="295" width="120" height="80" as="geometry" />
        </mxCell>
        <mxCell id="RVduhejHb8S-k_TmpePf-78" value="Rekrutuj wolontariusza" style="ellipse;whiteSpace=wrap;html=1;" vertex="1" parent="RVduhejHb8S-k_TmpePf-107">
          <mxGeometry x="501" y="860" width="120" height="80" as="geometry" />
        </mxCell>
        <mxCell id="RVduhejHb8S-k_TmpePf-13" value="Przydziel wolontariusza" style="ellipse;whiteSpace=wrap;html=1;" vertex="1" parent="RVduhejHb8S-k_TmpePf-107">
          <mxGeometry x="501" y="695" width="120" height="80" as="geometry" />
        </mxCell>
        <mxCell id="RVduhejHb8S-k_TmpePf-7" value="Realizuj zadanie" style="ellipse;whiteSpace=wrap;html=1;" vertex="1" parent="RVduhejHb8S-k_TmpePf-107">
          <mxGeometry x="671" y="415" width="120" height="80" as="geometry" />
        </mxCell>
        <mxCell id="RVduhejHb8S-k_TmpePf-11" value="Realizuj zlecenie&lt;div&gt;pomocy&lt;/div&gt;" style="ellipse;whiteSpace=wrap;html=1;" vertex="1" parent="RVduhejHb8S-k_TmpePf-107">
          <mxGeometry x="501" y="525" width="120" height="80" as="geometry" />
        </mxCell>
        <mxCell id="RVduhejHb8S-k_TmpePf-14" value="&amp;lt;&amp;lt;include&amp;gt;&amp;gt;" style="endArrow=open;endSize=12;dashed=1;html=1;rounded=0;exitX=0.5;exitY=1;exitDx=0;exitDy=0;entryX=0.5;entryY=0;entryDx=0;entryDy=0;" edge="1" parent="RVduhejHb8S-k_TmpePf-107" source="RVduhejHb8S-k_TmpePf-11" target="RVduhejHb8S-k_TmpePf-13">
          <mxGeometry x="0.0058" width="160" relative="1" as="geometry">
            <mxPoint x="833.426406871193" y="727.2842712474617" as="sourcePoint" />
            <mxPoint x="853.426406871193" y="782.7157287525379" as="targetPoint" />
            <mxPoint as="offset" />
          </mxGeometry>
        </mxCell>
        <mxCell id="RVduhejHb8S-k_TmpePf-12" value="" style="endArrow=block;endSize=16;endFill=0;html=1;rounded=0;entryX=0;entryY=1;entryDx=0;entryDy=0;exitX=1;exitY=0;exitDx=0;exitDy=0;" edge="1" parent="RVduhejHb8S-k_TmpePf-107" source="RVduhejHb8S-k_TmpePf-11" target="RVduhejHb8S-k_TmpePf-7">
          <mxGeometry width="160" relative="1" as="geometry">
            <mxPoint x="833.426406871193" y="670.7157287525383" as="sourcePoint" />
            <mxPoint x="889" y="497" as="targetPoint" />
          </mxGeometry>
        </mxCell>
        <mxCell id="RVduhejHb8S-k_TmpePf-37" value="Przekaż pomoc finansową" style="ellipse;whiteSpace=wrap;html=1;" vertex="1" parent="RVduhejHb8S-k_TmpePf-107">
          <mxGeometry x="671" y="625" width="120" height="80" as="geometry" />
        </mxCell>
        <mxCell id="RVduhejHb8S-k_TmpePf-36" value="" style="endArrow=block;endSize=16;endFill=0;html=1;rounded=0;entryX=0.5;entryY=1;entryDx=0;entryDy=0;exitX=0.5;exitY=0;exitDx=0;exitDy=0;" edge="1" parent="RVduhejHb8S-k_TmpePf-107" source="RVduhejHb8S-k_TmpePf-37" target="RVduhejHb8S-k_TmpePf-7">
          <mxGeometry width="160" relative="1" as="geometry">
            <mxPoint x="871" y="759" as="sourcePoint" />
            <mxPoint x="949" y="711" as="targetPoint" />
          </mxGeometry>
        </mxCell>
        <mxCell id="RVduhejHb8S-k_TmpePf-58" value="Dodaj środki finansowe" style="ellipse;whiteSpace=wrap;html=1;" vertex="1" parent="RVduhejHb8S-k_TmpePf-107">
          <mxGeometry x="686" y="845" width="90" height="64" as="geometry" />
        </mxCell>
        <mxCell id="RVduhejHb8S-k_TmpePf-123" value="&amp;lt;&amp;lt;extend&amp;gt;&amp;gt;" style="endArrow=open;endSize=12;dashed=1;html=1;rounded=0;entryX=0.5;entryY=1;entryDx=0;entryDy=0;exitX=0.5;exitY=0;exitDx=0;exitDy=0;" edge="1" parent="RVduhejHb8S-k_TmpePf-107" source="RVduhejHb8S-k_TmpePf-78" target="RVduhejHb8S-k_TmpePf-13">
          <mxGeometry width="160" relative="1" as="geometry">
            <mxPoint x="1057" y="838" as="sourcePoint" />
            <mxPoint x="1057" y="713" as="targetPoint" />
          </mxGeometry>
        </mxCell>
        <mxCell id="RVduhejHb8S-k_TmpePf-59" value="Dodaj zasoby" style="ellipse;whiteSpace=wrap;html=1;" vertex="1" parent="RVduhejHb8S-k_TmpePf-107">
          <mxGeometry x="871" y="959" width="120" height="80" as="geometry" />
        </mxCell>
        <mxCell id="RVduhejHb8S-k_TmpePf-63" value="" style="endArrow=block;endSize=16;endFill=0;html=1;rounded=0;entryX=0.061;entryY=0.248;entryDx=0;entryDy=0;exitX=1;exitY=1;exitDx=0;exitDy=0;entryPerimeter=0;" edge="1" parent="RVduhejHb8S-k_TmpePf-107" source="RVduhejHb8S-k_TmpePf-58" target="RVduhejHb8S-k_TmpePf-59">
          <mxGeometry width="160" relative="1" as="geometry">
            <mxPoint x="1101" y="769" as="sourcePoint" />
            <mxPoint x="1241" y="846" as="targetPoint" />
          </mxGeometry>
        </mxCell>
        <mxCell id="RVduhejHb8S-k_TmpePf-9" value="Realizuj zlecenie transportu" style="ellipse;whiteSpace=wrap;html=1;" vertex="1" parent="RVduhejHb8S-k_TmpePf-107">
          <mxGeometry x="951" y="495" width="120" height="80" as="geometry" />
        </mxCell>
        <mxCell id="RVduhejHb8S-k_TmpePf-10" value="" style="endArrow=block;endSize=16;endFill=0;html=1;rounded=0;entryX=1;entryY=1;entryDx=0;entryDy=0;exitX=0;exitY=0.5;exitDx=0;exitDy=0;" edge="1" parent="RVduhejHb8S-k_TmpePf-107" source="RVduhejHb8S-k_TmpePf-9" target="RVduhejHb8S-k_TmpePf-7">
          <mxGeometry width="160" relative="1" as="geometry">
            <mxPoint x="846" y="958.72" as="sourcePoint" />
            <mxPoint x="938.5735931288073" y="821.0042712474619" as="targetPoint" />
          </mxGeometry>
        </mxCell>
        <mxCell id="RVduhejHb8S-k_TmpePf-16" value="Przydziel środek transportu" style="ellipse;whiteSpace=wrap;html=1;" vertex="1" parent="RVduhejHb8S-k_TmpePf-107">
          <mxGeometry x="821" y="615" width="90" height="64" as="geometry" />
        </mxCell>
        <mxCell id="RVduhejHb8S-k_TmpePf-17" value="&amp;lt;&amp;lt;include&amp;gt;&amp;gt;" style="endArrow=open;endSize=12;dashed=1;html=1;rounded=0;exitX=0;exitY=1;exitDx=0;exitDy=0;entryX=1;entryY=0;entryDx=0;entryDy=0;" edge="1" parent="RVduhejHb8S-k_TmpePf-107" source="RVduhejHb8S-k_TmpePf-9" target="RVduhejHb8S-k_TmpePf-16">
          <mxGeometry width="160" relative="1" as="geometry">
            <mxPoint x="531" y="661" as="sourcePoint" />
            <mxPoint x="531" y="561" as="targetPoint" />
          </mxGeometry>
        </mxCell>
        <mxCell id="RVduhejHb8S-k_TmpePf-15" value="Przydziel ładunek" style="ellipse;whiteSpace=wrap;html=1;" vertex="1" parent="RVduhejHb8S-k_TmpePf-107">
          <mxGeometry x="966" y="641" width="90" height="64" as="geometry" />
        </mxCell>
        <mxCell id="RVduhejHb8S-k_TmpePf-20" value="&amp;lt;&amp;lt;include&amp;gt;&amp;gt;" style="endArrow=open;endSize=12;dashed=1;html=1;rounded=0;exitX=0.5;exitY=1;exitDx=0;exitDy=0;entryX=0.5;entryY=0;entryDx=0;entryDy=0;" edge="1" parent="RVduhejHb8S-k_TmpePf-107" source="RVduhejHb8S-k_TmpePf-9" target="RVduhejHb8S-k_TmpePf-15">
          <mxGeometry width="160" relative="1" as="geometry">
            <mxPoint x="1093" y="679" as="sourcePoint" />
            <mxPoint x="1201" y="731" as="targetPoint" />
          </mxGeometry>
        </mxCell>
        <mxCell id="RVduhejHb8S-k_TmpePf-18" value="Przydziel trasę" style="ellipse;whiteSpace=wrap;html=1;" vertex="1" parent="RVduhejHb8S-k_TmpePf-107">
          <mxGeometry x="1111" y="615" width="90" height="64" as="geometry" />
        </mxCell>
        <mxCell id="RVduhejHb8S-k_TmpePf-19" value="&amp;lt;&amp;lt;include&amp;gt;&amp;gt;" style="endArrow=open;endSize=12;dashed=1;html=1;rounded=0;exitX=1;exitY=1;exitDx=0;exitDy=0;entryX=0;entryY=0;entryDx=0;entryDy=0;" edge="1" parent="RVduhejHb8S-k_TmpePf-107" source="RVduhejHb8S-k_TmpePf-9" target="RVduhejHb8S-k_TmpePf-18">
          <mxGeometry width="160" relative="1" as="geometry">
            <mxPoint x="1009" y="679" as="sourcePoint" />
            <mxPoint x="931" y="711" as="targetPoint" />
          </mxGeometry>
        </mxCell>
        <mxCell id="RVduhejHb8S-k_TmpePf-124" value="&amp;lt;&amp;lt;extend&amp;gt;&amp;gt;" style="endArrow=open;endSize=12;dashed=1;html=1;rounded=0;entryX=0.5;entryY=1;entryDx=0;entryDy=0;exitX=0.5;exitY=0;exitDx=0;exitDy=0;" edge="1" parent="RVduhejHb8S-k_TmpePf-107" source="RVduhejHb8S-k_TmpePf-58" target="RVduhejHb8S-k_TmpePf-37">
          <mxGeometry width="160" relative="1" as="geometry">
            <mxPoint x="1057" y="838" as="sourcePoint" />
            <mxPoint x="876" y="689" as="targetPoint" />
          </mxGeometry>
        </mxCell>
        <mxCell id="RVduhejHb8S-k_TmpePf-53" value="Dodaj środek transportu" style="ellipse;whiteSpace=wrap;html=1;" vertex="1" parent="RVduhejHb8S-k_TmpePf-107">
          <mxGeometry x="821" y="781" width="90" height="64" as="geometry" />
        </mxCell>
        <mxCell id="RVduhejHb8S-k_TmpePf-62" value="" style="endArrow=block;endSize=16;endFill=0;html=1;rounded=0;exitX=0.577;exitY=1.033;exitDx=0;exitDy=0;exitPerimeter=0;entryX=0.327;entryY=0.026;entryDx=0;entryDy=0;entryPerimeter=0;" edge="1" parent="RVduhejHb8S-k_TmpePf-107" source="RVduhejHb8S-k_TmpePf-53" target="RVduhejHb8S-k_TmpePf-59">
          <mxGeometry width="160" relative="1" as="geometry">
            <mxPoint x="1168" y="731" as="sourcePoint" />
            <mxPoint x="881" y="955" as="targetPoint" />
          </mxGeometry>
        </mxCell>
        <mxCell id="RVduhejHb8S-k_TmpePf-55" value="&amp;lt;&amp;lt;extend&amp;gt;&amp;gt;" style="endArrow=open;endSize=12;dashed=1;html=1;rounded=0;entryX=0.5;entryY=1;entryDx=0;entryDy=0;exitX=0.5;exitY=0;exitDx=0;exitDy=0;" edge="1" parent="RVduhejHb8S-k_TmpePf-107" source="RVduhejHb8S-k_TmpePf-53" target="RVduhejHb8S-k_TmpePf-16">
          <mxGeometry width="160" relative="1" as="geometry">
            <mxPoint x="1266" y="737" as="sourcePoint" />
            <mxPoint x="1271" y="661" as="targetPoint" />
          </mxGeometry>
        </mxCell>
        <mxCell id="RVduhejHb8S-k_TmpePf-54" value="Dodaj przedmiot" style="ellipse;whiteSpace=wrap;html=1;" vertex="1" parent="RVduhejHb8S-k_TmpePf-107">
          <mxGeometry x="966" y="781" width="90" height="64" as="geometry" />
        </mxCell>
        <mxCell id="RVduhejHb8S-k_TmpePf-56" value="&amp;lt;&amp;lt;extend&amp;gt;&amp;gt;" style="endArrow=open;endSize=12;dashed=1;html=1;rounded=0;entryX=0.5;entryY=1;entryDx=0;entryDy=0;exitX=0.5;exitY=0;exitDx=0;exitDy=0;" edge="1" parent="RVduhejHb8S-k_TmpePf-107" source="RVduhejHb8S-k_TmpePf-54" target="RVduhejHb8S-k_TmpePf-15">
          <mxGeometry width="160" relative="1" as="geometry">
            <mxPoint x="1271" y="737" as="sourcePoint" />
            <mxPoint x="1271" y="661" as="targetPoint" />
          </mxGeometry>
        </mxCell>
        <mxCell id="RVduhejHb8S-k_TmpePf-61" value="" style="endArrow=block;endSize=16;endFill=0;html=1;rounded=0;entryX=0.681;entryY=0.027;entryDx=0;entryDy=0;exitX=0.5;exitY=1;exitDx=0;exitDy=0;entryPerimeter=0;" edge="1" parent="RVduhejHb8S-k_TmpePf-107" source="RVduhejHb8S-k_TmpePf-54" target="RVduhejHb8S-k_TmpePf-59">
          <mxGeometry width="160" relative="1" as="geometry">
            <mxPoint x="811" y="601" as="sourcePoint" />
            <mxPoint x="889" y="553" as="targetPoint" />
          </mxGeometry>
        </mxCell>
        <mxCell id="RVduhejHb8S-k_TmpePf-51" value="Dodaj trasę" style="ellipse;whiteSpace=wrap;html=1;" vertex="1" parent="RVduhejHb8S-k_TmpePf-107">
          <mxGeometry x="1111" y="781" width="90" height="64" as="geometry" />
        </mxCell>
        <mxCell id="RVduhejHb8S-k_TmpePf-60" value="" style="endArrow=block;endSize=16;endFill=0;html=1;rounded=0;entryX=0.942;entryY=0.268;entryDx=0;entryDy=0;exitX=0.5;exitY=1;exitDx=0;exitDy=0;entryPerimeter=0;" edge="1" parent="RVduhejHb8S-k_TmpePf-107" source="RVduhejHb8S-k_TmpePf-51" target="RVduhejHb8S-k_TmpePf-59">
          <mxGeometry width="160" relative="1" as="geometry">
            <mxPoint x="931" y="781" as="sourcePoint" />
            <mxPoint x="931" y="565" as="targetPoint" />
          </mxGeometry>
        </mxCell>
        <mxCell id="RVduhejHb8S-k_TmpePf-52" value="&amp;lt;&amp;lt;extend&amp;gt;&amp;gt;" style="endArrow=open;endSize=12;dashed=1;html=1;rounded=0;entryX=0.5;entryY=1;entryDx=0;entryDy=0;exitX=0.5;exitY=0;exitDx=0;exitDy=0;" edge="1" parent="RVduhejHb8S-k_TmpePf-107" source="RVduhejHb8S-k_TmpePf-51" target="RVduhejHb8S-k_TmpePf-18">
          <mxGeometry width="160" relative="1" as="geometry">
            <mxPoint x="961" y="926" as="sourcePoint" />
            <mxPoint x="931" y="811" as="targetPoint" />
          </mxGeometry>
        </mxCell>
        <mxCell id="RVduhejHb8S-k_TmpePf-84" value="Filtruj dane" style="ellipse;whiteSpace=wrap;html=1;" vertex="1" parent="RVduhejHb8S-k_TmpePf-107">
          <mxGeometry x="360" y="835" width="90" height="64" as="geometry" />
        </mxCell>
        <mxCell id="RVduhejHb8S-k_TmpePf-64" value="Generuj raport" style="ellipse;whiteSpace=wrap;html=1;" vertex="1" parent="RVduhejHb8S-k_TmpePf-107">
          <mxGeometry x="191" y="425" width="120" height="80" as="geometry" />
        </mxCell>
        <mxCell id="RVduhejHb8S-k_TmpePf-77" value="&amp;lt;&amp;lt;extend&amp;gt;&amp;gt;" style="endArrow=open;endSize=12;dashed=1;html=1;rounded=0;entryX=0.5;entryY=1;entryDx=0;entryDy=0;exitX=0.5;exitY=0;exitDx=0;exitDy=0;" edge="1" parent="RVduhejHb8S-k_TmpePf-107" source="RVduhejHb8S-k_TmpePf-75" target="RVduhejHb8S-k_TmpePf-87">
          <mxGeometry width="160" relative="1" as="geometry">
            <mxPoint x="1454" y="901" as="sourcePoint" />
            <mxPoint x="540.9999999999957" y="1035" as="targetPoint" />
          </mxGeometry>
        </mxCell>
        <mxCell id="RVduhejHb8S-k_TmpePf-75" value="Zarządzaj zasobami" style="ellipse;whiteSpace=wrap;html=1;" vertex="1" parent="RVduhejHb8S-k_TmpePf-107">
          <mxGeometry x="191" y="959" width="120" height="80" as="geometry" />
        </mxCell>
        <mxCell id="RVduhejHb8S-k_TmpePf-76" value="&amp;lt;&amp;lt;extend&amp;gt;&amp;gt;" style="endArrow=open;endSize=12;dashed=1;html=1;rounded=0;exitX=0;exitY=0.5;exitDx=0;exitDy=0;" edge="1" parent="RVduhejHb8S-k_TmpePf-107" source="RVduhejHb8S-k_TmpePf-59" target="RVduhejHb8S-k_TmpePf-75">
          <mxGeometry width="160" relative="1" as="geometry">
            <mxPoint x="825" y="820" as="sourcePoint" />
            <mxPoint x="762" y="781" as="targetPoint" />
          </mxGeometry>
        </mxCell>
        <mxCell id="RVduhejHb8S-k_TmpePf-87" value="Wyświetl dane organizacji" style="ellipse;whiteSpace=wrap;html=1;" vertex="1" parent="RVduhejHb8S-k_TmpePf-107">
          <mxGeometry x="191" y="720" width="120" height="80" as="geometry" />
        </mxCell>
        <mxCell id="RVduhejHb8S-k_TmpePf-83" value="&amp;lt;&amp;lt;extend&amp;gt;&amp;gt;" style="endArrow=open;endSize=12;dashed=1;html=1;rounded=0;entryX=1;entryY=1;entryDx=0;entryDy=0;exitX=0;exitY=0;exitDx=0;exitDy=0;" edge="1" parent="RVduhejHb8S-k_TmpePf-107" source="RVduhejHb8S-k_TmpePf-84" target="RVduhejHb8S-k_TmpePf-87">
          <mxGeometry width="160" relative="1" as="geometry">
            <mxPoint x="943" y="611" as="sourcePoint" />
            <mxPoint x="1114.5735931288073" y="652.7157287525383" as="targetPoint" />
          </mxGeometry>
        </mxCell>
        <mxCell id="RVduhejHb8S-k_TmpePf-85" value="Sortuj dane" style="ellipse;whiteSpace=wrap;html=1;" vertex="1" parent="RVduhejHb8S-k_TmpePf-107">
          <mxGeometry x="360" y="616" width="90" height="64" as="geometry" />
        </mxCell>
        <mxCell id="RVduhejHb8S-k_TmpePf-86" value="&amp;lt;&amp;lt;extend&amp;gt;&amp;gt;" style="endArrow=open;endSize=12;dashed=1;html=1;rounded=0;entryX=1;entryY=0;entryDx=0;entryDy=0;exitX=0;exitY=1;exitDx=0;exitDy=0;" edge="1" parent="RVduhejHb8S-k_TmpePf-107" source="RVduhejHb8S-k_TmpePf-85" target="RVduhejHb8S-k_TmpePf-87">
          <mxGeometry width="160" relative="1" as="geometry">
            <mxPoint x="1023" y="391" as="sourcePoint" />
            <mxPoint x="1106" y="533" as="targetPoint" />
          </mxGeometry>
        </mxCell>
        <mxCell id="RVduhejHb8S-k_TmpePf-94" value="Organizacja&lt;div&gt;pomocowa&lt;/div&gt;" style="shape=umlActor;verticalLabelPosition=bottom;verticalAlign=top;html=1;strokeWidth=1;perimeterSpacing=8;" vertex="1" parent="RVduhejHb8S-k_TmpePf-107">
          <mxGeometry x="61" y="610" width="30" height="60" as="geometry" />
        </mxCell>
        <mxCell id="RVduhejHb8S-k_TmpePf-95" value="Przedstawiciel&lt;br&gt;władz" style="shape=umlActor;verticalLabelPosition=bottom;verticalAlign=top;html=1;perimeterSpacing=8;" vertex="1" parent="RVduhejHb8S-k_TmpePf-107">
          <mxGeometry x="61" y="400" width="30" height="60" as="geometry" />
        </mxCell>
        <mxCell id="RVduhejHb8S-k_TmpePf-96" value="" style="endArrow=block;endSize=16;endFill=0;html=1;rounded=0;entryX=0.5;entryY=0;entryDx=0;entryDy=0;entryPerimeter=0;" edge="1" parent="RVduhejHb8S-k_TmpePf-107" target="RVduhejHb8S-k_TmpePf-94">
          <mxGeometry width="160" relative="1" as="geometry">
            <mxPoint x="76" y="500" as="sourcePoint" />
            <mxPoint x="-139" y="850" as="targetPoint" />
          </mxGeometry>
        </mxCell>
        <mxCell id="RVduhejHb8S-k_TmpePf-82" value="Wyświetl dane w systemie" style="ellipse;whiteSpace=wrap;html=1;" vertex="1" parent="RVduhejHb8S-k_TmpePf-107">
          <mxGeometry x="271" y="259" width="120" height="80" as="geometry" />
        </mxCell>
        <mxCell id="RVduhejHb8S-k_TmpePf-126" value="Sortuj dane" style="ellipse;whiteSpace=wrap;html=1;" vertex="1" parent="RVduhejHb8S-k_TmpePf-107">
          <mxGeometry x="406" y="175" width="90" height="64" as="geometry" />
        </mxCell>
        <mxCell id="RVduhejHb8S-k_TmpePf-127" value="&amp;lt;&amp;lt;extend&amp;gt;&amp;gt;" style="endArrow=open;endSize=12;dashed=1;html=1;rounded=0;entryX=1;entryY=0;entryDx=0;entryDy=0;exitX=0;exitY=1;exitDx=0;exitDy=0;" edge="1" parent="RVduhejHb8S-k_TmpePf-107" source="RVduhejHb8S-k_TmpePf-126" target="RVduhejHb8S-k_TmpePf-82">
          <mxGeometry width="160" relative="1" as="geometry">
            <mxPoint x="1153" y="91" as="sourcePoint" />
            <mxPoint x="413" y="315" as="targetPoint" />
          </mxGeometry>
        </mxCell>
        <mxCell id="RVduhejHb8S-k_TmpePf-128" value="Filtruj dane" style="ellipse;whiteSpace=wrap;html=1;" vertex="1" parent="RVduhejHb8S-k_TmpePf-107">
          <mxGeometry x="171" y="175" width="90" height="64" as="geometry" />
        </mxCell>
        <mxCell id="RVduhejHb8S-k_TmpePf-129" value="&amp;lt;&amp;lt;extend&amp;gt;&amp;gt;" style="endArrow=open;endSize=12;dashed=1;html=1;rounded=0;entryX=0;entryY=0;entryDx=0;entryDy=0;exitX=1;exitY=1;exitDx=0;exitDy=0;" edge="1" parent="RVduhejHb8S-k_TmpePf-107" source="RVduhejHb8S-k_TmpePf-128" target="RVduhejHb8S-k_TmpePf-82">
          <mxGeometry width="160" relative="1" as="geometry">
            <mxPoint x="344" y="644" as="sourcePoint" />
            <mxPoint x="273" y="595" as="targetPoint" />
          </mxGeometry>
        </mxCell>
        <mxCell id="RVduhejHb8S-k_TmpePf-67" value="Przydziel&amp;nbsp;&lt;div&gt;organizację pomocową&lt;/div&gt;" style="ellipse;whiteSpace=wrap;html=1;" vertex="1" parent="RVduhejHb8S-k_TmpePf-107">
          <mxGeometry x="791" y="175" width="119" height="84" as="geometry" />
        </mxCell>
        <mxCell id="RVduhejHb8S-k_TmpePf-131" value="&amp;lt;&amp;lt;extend&amp;gt;&amp;gt;" style="endArrow=open;endSize=12;dashed=1;html=1;rounded=0;entryX=1;entryY=0;entryDx=0;entryDy=0;exitX=0;exitY=1;exitDx=0;exitDy=0;" edge="1" parent="RVduhejHb8S-k_TmpePf-107" source="RVduhejHb8S-k_TmpePf-78" target="RVduhejHb8S-k_TmpePf-75">
          <mxGeometry width="160" relative="1" as="geometry">
            <mxPoint x="881" y="1009" as="sourcePoint" />
            <mxPoint x="321" y="1009" as="targetPoint" />
          </mxGeometry>
        </mxCell>
        <mxCell id="RVduhejHb8S-k_TmpePf-65" value="Przekaż do realizacji" style="ellipse;whiteSpace=wrap;html=1;" vertex="1" parent="RVduhejHb8S-k_TmpePf-107">
          <mxGeometry x="671" y="265" width="120" height="80" as="geometry" />
        </mxCell>
        <mxCell id="RVduhejHb8S-k_TmpePf-68" value="" style="endArrow=block;endSize=16;endFill=0;html=1;rounded=0;entryX=1;entryY=0;entryDx=0;entryDy=0;exitX=0;exitY=1;exitDx=0;exitDy=0;" edge="1" parent="RVduhejHb8S-k_TmpePf-107" source="RVduhejHb8S-k_TmpePf-67" target="RVduhejHb8S-k_TmpePf-65">
          <mxGeometry width="160" relative="1" as="geometry">
            <mxPoint x="624" y="573" as="sourcePoint" />
            <mxPoint x="660" y="513" as="targetPoint" />
          </mxGeometry>
        </mxCell>
        <mxCell id="RVduhejHb8S-k_TmpePf-132" value="&amp;lt;&amp;lt;include&amp;gt;&amp;gt;" style="endArrow=open;endSize=12;dashed=1;html=1;rounded=0;exitX=0.5;exitY=0;exitDx=0;exitDy=0;entryX=0.5;entryY=1;entryDx=0;entryDy=0;" edge="1" parent="RVduhejHb8S-k_TmpePf-107" source="RVduhejHb8S-k_TmpePf-7" target="RVduhejHb8S-k_TmpePf-65">
          <mxGeometry x="0.0058" width="160" relative="1" as="geometry">
            <mxPoint x="571" y="615" as="sourcePoint" />
            <mxPoint x="571" y="705" as="targetPoint" />
            <mxPoint as="offset" />
          </mxGeometry>
        </mxCell>
        <mxCell id="RVduhejHb8S-k_TmpePf-69" value="Przydziel&lt;div&gt;sobie&lt;/div&gt;" style="ellipse;whiteSpace=wrap;html=1;" vertex="1" parent="RVduhejHb8S-k_TmpePf-107">
          <mxGeometry x="552" y="177" width="119" height="80" as="geometry" />
        </mxCell>
        <mxCell id="RVduhejHb8S-k_TmpePf-70" value="" style="endArrow=block;endSize=16;endFill=0;html=1;rounded=0;entryX=0;entryY=0;entryDx=0;entryDy=0;exitX=1;exitY=1;exitDx=0;exitDy=0;" edge="1" parent="RVduhejHb8S-k_TmpePf-107" source="RVduhejHb8S-k_TmpePf-69" target="RVduhejHb8S-k_TmpePf-65">
          <mxGeometry width="160" relative="1" as="geometry">
            <mxPoint x="661" y="-5" as="sourcePoint" />
            <mxPoint x="744" y="457" as="targetPoint" />
          </mxGeometry>
        </mxCell>
        <mxCell id="RVduhejHb8S-k_TmpePf-133" value="Wyślij komunikat" style="ellipse;whiteSpace=wrap;html=1;" vertex="1" parent="RVduhejHb8S-k_TmpePf-107">
          <mxGeometry x="191" y="585" width="120" height="80" as="geometry" />
        </mxCell>
        <mxCell id="RVduhejHb8S-k_TmpePf-136" value="" style="endArrow=none;html=1;rounded=0;exitX=1;exitY=0.3333333333333333;exitDx=0;exitDy=0;exitPerimeter=0;entryX=0;entryY=0.5;entryDx=0;entryDy=0;" edge="1" parent="RVduhejHb8S-k_TmpePf-107" source="RVduhejHb8S-k_TmpePf-95" target="RVduhejHb8S-k_TmpePf-65">
          <mxGeometry width="50" height="50" relative="1" as="geometry">
            <mxPoint x="671" y="655" as="sourcePoint" />
            <mxPoint x="721" y="605" as="targetPoint" />
          </mxGeometry>
        </mxCell>
        <mxCell id="RVduhejHb8S-k_TmpePf-137" value="" style="endArrow=none;html=1;rounded=0;exitX=1;exitY=0.3333333333333333;exitDx=0;exitDy=0;exitPerimeter=0;entryX=0;entryY=1;entryDx=0;entryDy=0;" edge="1" parent="RVduhejHb8S-k_TmpePf-107" source="RVduhejHb8S-k_TmpePf-95" target="RVduhejHb8S-k_TmpePf-82">
          <mxGeometry width="50" height="50" relative="1" as="geometry">
            <mxPoint x="671" y="655" as="sourcePoint" />
            <mxPoint x="721" y="605" as="targetPoint" />
          </mxGeometry>
        </mxCell>
        <mxCell id="RVduhejHb8S-k_TmpePf-139" value="&amp;lt;&amp;lt;extend&amp;gt;&amp;gt;" style="endArrow=open;endSize=12;dashed=1;html=1;rounded=0;exitX=0;exitY=1;exitDx=0;exitDy=0;entryX=1;entryY=0;entryDx=0;entryDy=0;" edge="1" parent="RVduhejHb8S-k_TmpePf-107" source="RVduhejHb8S-k_TmpePf-80" target="RVduhejHb8S-k_TmpePf-7">
          <mxGeometry width="160" relative="1" as="geometry">
            <mxPoint x="529" y="938" as="sourcePoint" />
            <mxPoint x="971" y="375" as="targetPoint" />
          </mxGeometry>
        </mxCell>
        <mxCell id="RVduhejHb8S-k_TmpePf-140" value="" style="endArrow=none;html=1;rounded=0;exitX=1;exitY=0.3333333333333333;exitDx=0;exitDy=0;exitPerimeter=0;entryX=0;entryY=0;entryDx=0;entryDy=0;" edge="1" parent="RVduhejHb8S-k_TmpePf-107" source="RVduhejHb8S-k_TmpePf-94" target="RVduhejHb8S-k_TmpePf-75">
          <mxGeometry width="50" height="50" relative="1" as="geometry">
            <mxPoint x="671" y="655" as="sourcePoint" />
            <mxPoint x="721" y="605" as="targetPoint" />
          </mxGeometry>
        </mxCell>
        <mxCell id="RVduhejHb8S-k_TmpePf-141" value="" style="endArrow=none;html=1;rounded=0;exitX=1;exitY=0.3333333333333333;exitDx=0;exitDy=0;exitPerimeter=0;entryX=0;entryY=0;entryDx=0;entryDy=0;" edge="1" parent="RVduhejHb8S-k_TmpePf-107" source="RVduhejHb8S-k_TmpePf-94" target="RVduhejHb8S-k_TmpePf-87">
          <mxGeometry width="50" height="50" relative="1" as="geometry">
            <mxPoint x="671" y="655" as="sourcePoint" />
            <mxPoint x="721" y="605" as="targetPoint" />
          </mxGeometry>
        </mxCell>
        <mxCell id="RVduhejHb8S-k_TmpePf-142" value="" style="endArrow=none;html=1;rounded=0;exitX=1;exitY=0.3333333333333333;exitDx=0;exitDy=0;exitPerimeter=0;entryX=0;entryY=0.5;entryDx=0;entryDy=0;" edge="1" parent="RVduhejHb8S-k_TmpePf-107" source="RVduhejHb8S-k_TmpePf-94" target="RVduhejHb8S-k_TmpePf-133">
          <mxGeometry width="50" height="50" relative="1" as="geometry">
            <mxPoint x="671" y="655" as="sourcePoint" />
            <mxPoint x="721" y="605" as="targetPoint" />
          </mxGeometry>
        </mxCell>
        <mxCell id="RVduhejHb8S-k_TmpePf-143" value="" style="endArrow=none;html=1;rounded=0;exitX=1;exitY=0.3333333333333333;exitDx=0;exitDy=0;exitPerimeter=0;entryX=0;entryY=1;entryDx=0;entryDy=0;" edge="1" parent="RVduhejHb8S-k_TmpePf-107" source="RVduhejHb8S-k_TmpePf-94" target="RVduhejHb8S-k_TmpePf-64">
          <mxGeometry width="50" height="50" relative="1" as="geometry">
            <mxPoint x="671" y="655" as="sourcePoint" />
            <mxPoint x="721" y="605" as="targetPoint" />
          </mxGeometry>
        </mxCell>
        <mxCell id="RVduhejHb8S-k_TmpePf-89" value="&lt;b&gt;&lt;font style=&quot;font-size: 18px;&quot;&gt;System koordynacji pomocy humanitarnej&lt;/font&gt;&lt;/b&gt;" style="text;html=1;align=center;verticalAlign=middle;resizable=0;points=[];autosize=1;strokeColor=none;fillColor=none;" vertex="1" parent="RVduhejHb8S-k_TmpePf-107">
          <mxGeometry x="510" y="105" width="390" height="40" as="geometry" />
        </mxCell>
        <mxCell id="RVduhejHb8S-k_TmpePf-144" value="" style="endArrow=none;html=1;rounded=0;exitX=1;exitY=0.3333333333333333;exitDx=0;exitDy=0;exitPerimeter=0;entryX=0;entryY=0.5;entryDx=0;entryDy=0;" edge="1" parent="RVduhejHb8S-k_TmpePf-107" source="RVduhejHb8S-k_TmpePf-94" target="RVduhejHb8S-k_TmpePf-7">
          <mxGeometry width="50" height="50" relative="1" as="geometry">
            <mxPoint x="670" y="575" as="sourcePoint" />
            <mxPoint x="720" y="525" as="targetPoint" />
            <Array as="points">
              <mxPoint x="450" y="455" />
            </Array>
          </mxGeometry>
        </mxCell>
        <mxCell id="RVduhejHb8S-k_TmpePf-145" value="Wyświetl&lt;br&gt;podsumowanie" style="ellipse;whiteSpace=wrap;html=1;" vertex="1" parent="RVduhejHb8S-k_TmpePf-107">
          <mxGeometry x="391" y="728" width="90" height="64" as="geometry" />
        </mxCell>
        <mxCell id="RVduhejHb8S-k_TmpePf-146" value="&amp;lt;&amp;lt;extend&amp;gt;&amp;gt;" style="endArrow=open;endSize=12;dashed=1;html=1;rounded=0;entryX=1;entryY=0.5;entryDx=0;entryDy=0;exitX=0;exitY=0.5;exitDx=0;exitDy=0;" edge="1" parent="RVduhejHb8S-k_TmpePf-107" source="RVduhejHb8S-k_TmpePf-145" target="RVduhejHb8S-k_TmpePf-87">
          <mxGeometry width="160" relative="1" as="geometry">
            <mxPoint x="397" y="680" as="sourcePoint" />
            <mxPoint x="303" y="742" as="targetPoint" />
          </mxGeometry>
        </mxCell>
        <mxCell id="RVduhejHb8S-k_TmpePf-147" value="Wyświetl&lt;br&gt;podsumowanie" style="ellipse;whiteSpace=wrap;html=1;" vertex="1" parent="RVduhejHb8S-k_TmpePf-107">
          <mxGeometry x="286" y="113" width="90" height="64" as="geometry" />
        </mxCell>
        <mxCell id="RVduhejHb8S-k_TmpePf-148" value="&amp;lt;&amp;lt;extend&amp;gt;&amp;gt;" style="endArrow=open;endSize=12;dashed=1;html=1;rounded=0;entryX=0.5;entryY=0;entryDx=0;entryDy=0;exitX=0.5;exitY=1;exitDx=0;exitDy=0;" edge="1" parent="RVduhejHb8S-k_TmpePf-107" source="RVduhejHb8S-k_TmpePf-147" target="RVduhejHb8S-k_TmpePf-82">
          <mxGeometry width="160" relative="1" as="geometry">
            <mxPoint x="429" y="240" as="sourcePoint" />
            <mxPoint x="383" y="281" as="targetPoint" />
          </mxGeometry>
        </mxCell>
      </root>
    </mxGraphModel>
  </diagram>
</mxfile>
